<svg version="1.1" id="图层_1" xmlns="http://www.w3.org/2000/svg" xmlns:xlink="http://www.w3.org/1999/xlink" width="56" height="56" x="0px" y="0px"
	 viewBox="0 0 56 56" style="enable-background:new 0 0 56 56;" xml:space="preserve">
<style type="text/css">
	.st0{fill:#2E3F97;}
</style>
<path class="st0" d="M31.7,38.9V36v-4.7c0-0.5,0.3-1,0.7-1.2l6.2-3.6l2.8-1.6v-4.6c0-1-0.5-1.9-1.4-2.4l-12.6-7.3
	c-0.9-0.5-1.9-0.5-2.8,0L12,17.9c-0.9,0.5-1.4,1.4-1.4,2.4v14.6c0,1,0.5,1.9,1.4,2.4l12.6,7.3c0.9,0.5,1.9,0.5,2.8,0l4.3-2.5l0,0
	V38.9z M27.4,25.2c-0.9,0.5-1.4,1.4-1.4,2.4v12.1c0,1.1-1.2,1.8-2.1,1.2L14,35.3c-0.4-0.3-0.7-0.7-0.7-1.2V21.2c0-0.5,0.3-1,0.7-1.2
	l11.2-6.5c0.4-0.3,1-0.3,1.4,0l8.4,4.8c0.9,0.5,0.9,1.9,0,2.4L27.4,25.2z"/>
<path class="st0" d="M43.4,23.8l-1.9,1.1v4v0.4v4.8v1.6c0,0.5-0.3,1-0.7,1.2l0,0L40.6,37l-0.2,0.1l-1.8,1l-1.1,0.7l-5.8,3.3l0,0v1.4
	v0.7l0,0l0,0v0.1c0,1.1,1.1,1.7,2.1,1.2l0,0L35,45l9.8-5.7c0.4-0.3,0.7-0.7,0.7-1.2V25C45.5,24,44.3,23.3,43.4,23.8z"/>
</svg>
